{
  "accessors": [
    {
      "bufferView": 2,
      "componentType": 5126,
      "count": 35341,
      "max": [
        3.8692383766174316,
        3.6483364105224609,
        1.4944248199462891
      ],
      "min": [
        -1.8527921438217163,
        -3.8377165794372559,
        -4.5423517227172852
      ],
      "type": "VEC3"
    },
    {
      "bufferView": 2,
      "byteOffset": 424092,
      "componentType": 5126,
      "count": 35341,
      "max": [
        0.99997532367706299,
        0.99998855590820312,
        0.99968671798706055
      ],
      "min": [
        -0.99989485740661621,
        -0.99995005130767822,
        -0.99994790554046631
      ],
      "type": "VEC3"
    },
    {
      "bufferView": 3,
      "componentType": 5126,
      "count": 35341,
      "max": [
        0.99998652935028076,
        0.99999672174453735,
        0.99937456846237183,
        1
      ],
      "min": [
        -0.99998342990875244,
        -0.99998044967651367,
        -0.99999785423278809,
        1
      ],
      "type": "VEC4"
    },
    {
      "bufferView": 1,
      "componentType": 5126,
      "count": 35341,
      "max": [
        0.98953580856323242,
        0.9817352294921875
      ],
      "min": [
        0.012924915179610252,
        0.023719906806945801
      ],
      "type": "VEC2"
    },
    {
      "bufferView": 0,
      "componentType": 5125,
      "count": 188808,
      "max": [
        35340
      ],
      "min": [
        0
      ],
      "type": "SCALAR"
    },
    {
      "bufferView": 2,
      "byteOffset": 848184,
      "componentType": 5126,
      "count": 1305,
      "max": [
        84.984527587890625,
        60.8067626953125,
        41.204311370849609
      ],
      "min": [
        -30.975317001342773,
        -64.653007507324219,
        -36.118064880371094
      ],
      "type": "VEC3"
    },
    {
      "bufferView": 2,
      "byteOffset": 863844,
      "componentType": 5126,
      "count": 1305,
      "max": [
        0.97605729103088379,
        0.99693721532821655,
        0.99969220161437988
      ],
      "min": [
        -0.97796857357025146,
        -0.99988198280334473,
        -0.99985194206237793
      ],
      "type": "VEC3"
    },
    {
      "bufferView": 3,
      "byteOffset": 565456,
      "componentType": 5126,
      "count": 1305,
      "max": [
        0.9311186671257019,
        0.99998801946640015,
        0.99351143836975098,
        1
      ],
      "min": [
        -0.94285911321640015,
        -0.99163967370986938,
        -0.99055719375610352,
        1
      ],
      "type": "VEC4"
    },
    {
      "bufferView": 1,
      "byteOffset": 282728,
      "componentType": 5126,
      "count": 1305,
      "max": [
        0.94612008333206177,
        0.95242547988891602
      ],
      "min": [
        0.032761167734861374,
        0.04114522784948349
      ],
      "type": "VEC2"
    },
    {
      "bufferView": 0,
      "byteOffset": 755232,
      "componentType": 5125,
      "count": 3480,
      "max": [
        1304
      ],
      "min": [
        0
      ],
      "type": "SCALAR"
    },
    {
      "bufferView": 2,
      "byteOffset": 879504,
      "componentType": 5126,
      "count": 39057,
      "max": [
        1.8435156345367432,
        2.3234767913818359,
        2.6747708320617676
      ],
      "min": [
        -1.9649609327316284,
        -4.5984716415405273,
        -1.0749682188034058
      ],
      "type": "VEC3"
    },
    {
      "bufferView": 2,
      "byteOffset": 1348188,
      "componentType": 5126,
      "count": 39057,
      "max": [
        0.99993133544921875,
        0.99986767768859863,
        0.99999654293060303
      ],
      "min": [
        -0.99999654293060303,
        -0.99949800968170166,
        -0.99999916553497314
      ],
      "type": "VEC3"
    },
    {
      "bufferView": 3,
      "byteOffset": 586336,
      "componentType": 5126,
      "count": 39057,
      "max": [
        0.99999511241912842,
        0.9999922513961792,
        0.99999880790710449,
        1
      ],
      "min": [
        -0.9999992847442627,
        -0.99982750415802002,
        -0.99999517202377319,
        -1
      ],
      "type": "VEC4"
    },
    {
      "bufferView": 1,
      "byteOffset": 293168,
      "componentType": 5126,
      "count": 39057,
      "max": [
        0.98982793092727661,
        0.99360454082489014
      ],
      "min": [
        0.0075635910034179688,
        0.0051904497668147087
      ],
      "type": "VEC2"
    },
    {
      "bufferView": 0,
      "byteOffset": 769152,
      "componentType": 5125,
      "count": 215064,
      "max": [
        39056
      ],
      "min": [
        0
      ],
      "type": "SCALAR"
    },
    {
      "bufferView": 2,
      "byteOffset": 1816872,
      "componentType": 5126,
      "count": 388,
      "max": [
        7.8725662231445312,
        17.376993179321289,
        22.18232536315918
      ],
      "min": [
        -7.8522281646728516,
        15.227102279663086,
        20.021038055419922
      ],
      "type": "VEC3"
    },
    {
      "bufferView": 2,
      "byteOffset": 1821528,
      "componentType": 5126,
      "count": 388,
      "max": [
        0.995513916015625,
        0.99528616666793823,
        0.99662202596664429
      ],
      "min": [
        -0.995513916015625,
        -0.99528616666793823,
        -0.99662202596664429
      ],
      "type": "VEC3"
    },
    {
      "bufferView": 3,
      "byteOffset": 1211248,
      "componentType": 5126,
      "count": 388,
      "max": [
        0.99733024835586548,
        0.99062633514404297,
        0.81036204099655151,
        1
      ],
      "min": [
        -0.99664729833602905,
        -0.99923914670944214,
        -0.43127906322479248,
        -1
      ],
      "type": "VEC4"
    },
    {
      "bufferView": 1,
      "byteOffset": 605624,
      "componentType": 5126,
      "count": 388,
      "max": [
        1.1091122627258301,
        1.1035082340240479
      ],
      "min": [
        -0.079890787601470947,
        -0.061576306819915771
      ],
      "type": "VEC2"
    },
    {
      "bufferView": 0,
      "byteOffset": 1629408,
      "componentType": 5125,
      "count": 2112,
      "max": [
        387
      ],
      "min": [
        0
      ],
      "type": "SCALAR"
    }
  ],
  "asset": {
    "extras": {
      "author": "ricocilliers (https://sketchfab.com/ricocilliers)",
      "license": "CC-BY-4.0 (http://creativecommons.org/licenses/by/4.0/)",
      "source": "https://sketchfab.com/3d-models/one-angery-dragon-boi-e590e148d35e4e589c6aca7d5e87ab9e",
      "title": "One angery dragon boi"
    },
    "generator": "Sketchfab-6.9.0",
    "version": "2.0"
  },
  "bufferViews": [
    {
      "buffer": 0,
      "byteLength": 1637856,
      "byteOffset": 0,
      "name": "floatBufferViews",
      "target": 34963
    },
    {
      "buffer": 0,
      "byteLength": 608728,
      "byteOffset": 1637856,
      "byteStride": 8,
      "name": "floatBufferViews",
      "target": 34962
    },
    {
      "buffer": 0,
      "byteLength": 1826184,
      "byteOffset": 2246584,
      "byteStride": 12,
      "name": "floatBufferViews",
      "target": 34962
    },
    {
      "buffer": 0,
      "byteLength": 1217456,
      "byteOffset": 4072768,
      "byteStride": 16,
      "name": "floatBufferViews",
      "target": 34962
    }
  ],
  "buffers": [
    {
      "byteLength": 5290224,
      "uri": "scene.bin"
    }
  ],
  "images": [
    {
      "uri": "textures/chain_baseColor.png"
    },
    {
      "uri": "textures/chain_metallicRoughness.png"
    },
    {
      "uri": "textures/chain_normal.png"
    },
    {
      "uri": "textures/Sparks2D_baseColor.png"
    },
    {
      "uri": "textures/Sparks2D_emissive.png"
    },
    {
      "uri": "textures/DragonMain_baseColor.png"
    },
    {
      "uri": "textures/DragonMain_metallicRoughness.png"
    },
    {
      "uri": "textures/DragonMain_emissive.png"
    },
    {
      "uri": "textures/DragonMain_normal.png"
    },
    {
      "uri": "textures/material_emissive.png"
    }
  ],
  "materials": [
    {
      "doubleSided": true,
      "emissiveFactor": [
        0,
        0,
        0
      ],
      "name": "chain",
      "normalTexture": {
        "index": 2,
        "scale": 1,
        "texCoord": 0
      },
      "occlusionTexture": {
        "index": 1,
        "strength": 1,
        "texCoord": 0
      },
      "pbrMetallicRoughness": {
        "baseColorFactor": [
          1,
          1,
          1,
          1
        ],
        "baseColorTexture": {
          "index": 0,
          "texCoord": 0
        },
        "metallicFactor": 1,
        "metallicRoughnessTexture": {
          "index": 1,
          "texCoord": 0
        },
        "roughnessFactor": 1
      }
    },
    {
      "alphaMode": "BLEND",
      "doubleSided": true,
      "emissiveFactor": [
        1,
        1,
        1
      ],
      "emissiveTexture": {
        "index": 4,
        "texCoord": 0
      },
      "name": "Sparks2D",
      "pbrMetallicRoughness": {
        "baseColorFactor": [
          1,
          0,
          0,
          0.62893081761006298
        ],
        "baseColorTexture": {
          "index": 3,
          "texCoord": 0
        },
        "metallicFactor": 0,
        "roughnessFactor": 1
      }
    },
    {
      "doubleSided": true,
      "emissiveFactor": [
        0.81761006289308169,
        0.81761006289308169,
        0.81761006289308169
      ],
      "emissiveTexture": {
        "index": 7,
        "texCoord": 0
      },
      "name": "DragonMain",
      "normalTexture": {
        "index": 8,
        "scale": 1,
        "texCoord": 0
      },
      "occlusionTexture": {
        "index": 6,
        "strength": 0.63522012578616349,
        "texCoord": 0
      },
      "pbrMetallicRoughness": {
        "baseColorFactor": [
          0.45283018867924535,
          0.45283018867924535,
          0.45283018867924535,
          1
        ],
        "baseColorTexture": {
          "index": 5,
          "texCoord": 0
        },
        "metallicFactor": 0.2389937106918239,
        "metallicRoughnessTexture": {
          "index": 6,
          "texCoord": 0
        },
        "roughnessFactor": 1
      }
    },
    {
      "doubleSided": true,
      "emissiveFactor": [
        1,
        1,
        1
      ],
      "emissiveTexture": {
        "index": 9,
        "texCoord": 0
      },
      "name": "material",
      "pbrMetallicRoughness": {
        "baseColorFactor": [
          0.25730578540798066,
          0.034003569572256684,
          0.0071267839536382814,
          1
        ],
        "metallicFactor": 0,
        "roughnessFactor": 0.21383647798742139
      }
    }
  ],
  "meshes": [
    {
      "name": "chain.003_chain_0",
      "primitives": [
        {
          "attributes": {
            "NORMAL": 1,
            "POSITION": 0,
            "TANGENT": 2,
            "TEXCOORD_0": 3
          },
          "indices": 4,
          "material": 0,
          "mode": 4
        }
      ]
    },
    {
      "name": "Spark2D.118_Sparks2D_0",
      "primitives": [
        {
          "attributes": {
            "NORMAL": 6,
            "POSITION": 5,
            "TANGENT": 7,
            "TEXCOORD_0": 8
          },
          "indices": 9,
          "material": 1,
          "mode": 4
        }
      ]
    },
    {
      "name": "Plane.001_DragonMain_0",
      "primitives": [
        {
          "attributes": {
            "NORMAL": 11,
            "POSITION": 10,
            "TANGENT": 12,
            "TEXCOORD_0": 13
          },
          "indices": 14,
          "material": 2,
          "mode": 4
        }
      ]
    },
    {
      "name": "Sphere_Eye_0",
      "primitives": [
        {
          "attributes": {
            "NORMAL": 16,
            "POSITION": 15,
            "TANGENT": 17,
            "TEXCOORD_0": 18
          },
          "indices": 19,
          "material": 3,
          "mode": 4
        }
      ]
    }
  ],
  "nodes": [
    {
      "children": [
        1
      ],
      "name": "RootNode (gltf orientation matrix)",
      "rotation": [
        -0.70710678118654746,
        -0,
        -0,
        0.70710678118654757
      ]
    },
    {
      "children": [
        2
      ],
      "name": "RootNode (model correction matrix)"
    },
    {
      "children": [
        3
      ],
      "matrix": [
        1,
        0,
        0,
        0,
        0,
        0,
        1,
        0,
        0,
        -1,
        0,
        0,
        0,
        0,
        0,
        1
      ],
      "name": "cacf8ad81c6348489cccebc455695f52.fbx"
    },
    {
      "children": [
        4,
        6,
        8,
        10
      ],
      "name": "RootNode"
    },
    {
      "children": [
        5
      ],
      "matrix": [
        -16.864699217806663,
        5.3354828517975426,
        -98.42314803393586,
        0,
        -77.429395652955307,
        -62.506756090694715,
        9.8789742299747747,
        0,
        -60.994021448907333,
        77.874502053626955,
        14.672807413371247,
        0,
        -150.59115600585938,
        156.88896179199219,
        416.95681762695312,
        1
      ],
      "name": "chain.003"
    },
    {
      "mesh": 0,
      "name": "chain.003_chain_0"
    },
    {
      "children": [
        7
      ],
      "matrix": [
        12.827379685947122,
        0.68873459565207928,
        -1.0256880322902255,
        0,
        1.2351232310133828,
        -7.4030429861747882,
        10.475566144096446,
        0,
        -0.029357914947357396,
        -10.525620004995357,
        -7.4349544109603078,
        0,
        -304.83819580078125,
        201.10237121582031,
        1.470477819442749,
        1
      ],
      "name": "Spark2D.118"
    },
    {
      "mesh": 1,
      "name": "Spark2D.118_Sparks2D_0"
    },
    {
      "children": [
        9
      ],
      "matrix": [
        99.998522437834154,
        -0.43130184420728207,
        -0.333188907568569,
        0,
        -0.34439009066142423,
        -2.6229321815089421,
        -99.964986722747483,
        0,
        0.42241157666983187,
        99.964672400903922,
        -2.6243791873161624,
        0,
        2.9711275100708008,
        35.176986694335938,
        9.6575956344604492,
        1
      ],
      "name": "Plane.001"
    },
    {
      "mesh": 2,
      "name": "Plane.001_DragonMain_0"
    },
    {
      "children": [
        11
      ],
      "matrix": [
        7.4391944438164526,
        -0.21034401858550739,
        -0.72584759126397802,
        0,
        -0.72759495936099861,
        -0.052770280870201774,
        -7.4418108306742319,
        0,
        0.20421813672475553,
        7.474335497012671,
        -0.072967572374762188,
        0,
        -2.5434362888336182,
        35.825965881347656,
        8.1124420166015625,
        1
      ],
      "name": "Sphere"
    },
    {
      "mesh": 3,
      "name": "Sphere_Eye_0"
    }
  ],
  "samplers": [
    {
      "magFilter": 9729,
      "minFilter": 9987,
      "wrapS": 10497,
      "wrapT": 10497
    }
  ],
  "scene": 0,
  "scenes": [
    {
      "name": "OSG_Scene",
      "nodes": [
        0
      ]
    }
  ],
  "textures": [
    {
      "sampler": 0,
      "source": 0
    },
    {
      "sampler": 0,
      "source": 1
    },
    {
      "sampler": 0,
      "source": 2
    },
    {
      "sampler": 0,
      "source": 3
    },
    {
      "sampler": 0,
      "source": 4
    },
    {
      "sampler": 0,
      "source": 5
    },
    {
      "sampler": 0,
      "source": 6
    },
    {
      "sampler": 0,
      "source": 7
    },
    {
      "sampler": 0,
      "source": 8
    },
    {
      "sampler": 0,
      "source": 9
    }
  ]
}

